<svg
    data-name="Group 59873"
    xmlns="http://www.w3.org/2000/svg"
    width="120px"
    height="120px"
    viewBox="0 0 120 120"
>
    <rect
    id="Rectangle_15916"
    data-name="Rectangle 15916"
    width="120"
    height="120"
    fill="#ffcd00"
    ></rect>
    <g id="Group_59798" data-name="Group 59798" transform="translate(19.999 30)">
    <path
        id="Path_4990"
        data-name="Path 4990"
        d="M79.427,47.34,74.684,35.4l2.925-11.948a2.424,2.424,0,0,0-2.351-3,2.451,2.451,0,0,0,.1-.688V11.022l3.82-7.5A2.424,2.424,0,0,0,77.019,0a2.433,2.433,0,0,0-.364.027L74.291.384a2.438,2.438,0,0,0-1.767,1.233l-1,1.819-.484-.916A2.418,2.418,0,0,0,68.9,1.227a2.456,2.456,0,0,0-.36.027l-2.489.374a2.419,2.419,0,0,0-.877.316,2.414,2.414,0,0,0-.566-.07,2.46,2.46,0,0,0-.363.027l-10.1,1.523a2.412,2.412,0,0,0-1.352.689,2.407,2.407,0,0,0-1.14-.286,2.441,2.441,0,0,0-.364.027l-2.583.392a2.408,2.408,0,0,0-1.995,1.821,2.424,2.424,0,0,0-2.08-1.182,2.456,2.456,0,0,0-.365.027L41.694,5.3a2.41,2.41,0,0,0-2.059,2.4v2.507A6.219,6.219,0,0,0,33.674,6.6a11.432,11.432,0,0,0-2.429.283,7.5,7.5,0,0,0-5.482,3.8v-.152A2.427,2.427,0,0,0,23.34,8.1a2.46,2.46,0,0,0-.361.027l-2.587.388a2.412,2.412,0,0,0-1.731,1.166,2.411,2.411,0,0,0-1.99-.6L13.94,9.49a2.416,2.416,0,0,0-1.717,1.153L9.611,15.015,7.16,11.789a2.438,2.438,0,0,0-1.929-.956,2.409,2.409,0,0,0-.356.026l-2.8.416a2.438,2.438,0,0,0-2.07,2.4V30.4A2.416,2.416,0,0,0,.74,32.13a2.414,2.414,0,0,0-.735,1.744v4.67a2.424,2.424,0,0,0,2.423,2.424,2.454,2.454,0,0,0,.363-.027l5.9-.891v4.9a2.419,2.419,0,0,0-.649.012l-5.984.919a2.411,2.411,0,0,0-2.056,2.4v2.989A9.347,9.347,0,0,0,2.38,58.3a9.211,9.211,0,0,0,6.5,2.553c.279,0,.446-.013.443-.013h0q6-.383,8.461-3.647a2.419,2.419,0,0,0,2.758,2.051l6.4-.968A2.442,2.442,0,0,0,28.863,56.7a2.42,2.42,0,0,0,2.3.941l6.252-.941A2.415,2.415,0,0,0,38.8,55.99a2.41,2.41,0,0,0,1.155.3,2.443,2.443,0,0,0,.364-.027l6.521-.986a2.419,2.419,0,0,0,1.989-1.808l.134-.536.054.135a2.424,2.424,0,0,0,2.614,1.5l6.24-.945a2.42,2.42,0,0,0,1.038-.42,2.389,2.389,0,0,0,1.079.083l6.521-.986A2.417,2.417,0,0,0,68.5,50.482l.134-.536.055.137A2.414,2.414,0,0,0,70.935,51.6h0a2.444,2.444,0,0,0,.363-.027l6.24-.945a2.424,2.424,0,0,0,1.889-3.292Z"
    ></path>
    <path
        id="Path_4991"
        data-name="Path 4991"
        d="M201.637,729.863"
        transform="translate(-190.937 -691.132)"
        fill="#282928"
    ></path>
    <path
        id="Path_4992"
        data-name="Path 4992"
        d="M201.637,729.862"
        transform="translate(-190.937 -691.131)"
        fill="#e3ae24"
    ></path>
    <path
        id="Path_4993"
        data-name="Path 4993"
        d="M184.757,984.534"
        transform="translate(-174.952 -932.288)"
        fill="#282928"
    ></path>
    <path
        id="Path_4994"
        data-name="Path 4994"
        d="M184.757,984.535"
        transform="translate(-174.952 -932.289)"
        fill="#e3ae24"
    ></path>
    <path
        id="Path_4995"
        data-name="Path 4995"
        d="M53.348,225.47V208.754a.418.418,0,0,0-.48-.413l-2.73.414a.418.418,0,0,0-.3.2l-4.135,6.921-4.248-5.589a.418.418,0,0,0-.394-.16l-2.8.416a.418.418,0,0,0-.356.413v16.722a.418.418,0,0,0,.479.413l2.566-.382a.417.417,0,0,0,.356-.413V215.913l4.036,5.558a.418.418,0,0,0,.69-.022l3.907-6.157v10.569a.418.418,0,0,0,.48.413l2.571-.391A.418.418,0,0,0,53.348,225.47Z"
        transform="translate(-35.896 -197.281)"
        fill="#ffcd00"
    ></path>
    <path
        id="Path_4996"
        data-name="Path 4996"
        d="M386.633,207.594V190.878a.418.418,0,0,0-.48-.413l-2.585.388a.418.418,0,0,0-.356.413v16.72a.418.418,0,0,0,.48.413l2.585-.392A.418.418,0,0,0,386.633,207.594Z"
        transform="translate(-362.876 -180.353)"
        fill="#ffcd00"
    ></path>
    <path
        id="Path_4997"
        data-name="Path 4997"
        d="M1023,91.227V77.614l-3.212.483a.418.418,0,0,1-.48-.412l-.008-2.618a.417.417,0,0,1,.355-.414l10.1-1.523a.418.418,0,0,1,.48.413v2.612a.418.418,0,0,1-.355.413l-3.469.528V90.839a.417.417,0,0,1-.355.413l-2.574.387A.417.417,0,0,1,1023,91.227Z"
        transform="translate(-965.212 -69.245)"
        fill="#ffcd00"
    ></path>
    <path
        id="Path_4998"
        data-name="Path 4998"
        d="M1247.539,46.812v9.153a.412.412,0,0,0,.473.407l2.591-.388a.412.412,0,0,0,.351-.407V46.349l4.038-7.926a.418.418,0,0,0-.434-.6l-2.366.356a.417.417,0,0,0-.3.212L1249.1,43.48l-2.228-4.215a.418.418,0,0,0-.431-.218l-2.488.373a.418.418,0,0,0-.3.621Z"
        transform="translate(-1177.604 -35.809)"
        fill="#ffcd00"
    ></path>
    <path
        id="Path_4999"
        data-name="Path 4999"
        d="M508.586,169.927l4.754-.717a.418.418,0,0,1,.48.418l-.015,1.265c.023,6.925-.8,8.106-5.988,8.891-6.127.928-6.072-4.846-6.083-8.175-.015-4.495.013-8.136,5.048-9.239,6.013-1.317,6.636,3.229,6.763,4.623a.417.417,0,0,1-.354.45l-2.6.391a.416.416,0,0,1-.474-.344c-.111-.715-.319-2.086-2.206-1.8-2.419.361-2.841,1.679-2.742,6.123.079,3.52.43,4.808,2.58,4.49,2.173-.322,2.5-.82,2.655-3l-1.717.235a.418.418,0,0,1-.474-.416l.016-2.785A.418.418,0,0,1,508.586,169.927Z"
        transform="translate(-475.107 -153.53)"
        fill="#ffcd00"
    ></path>
    <path
        id="Path_5000"
        data-name="Path 5000"
        d="M788.106,128.137v-6.775l3.6-.547v6.654a.418.418,0,0,0,.48.413l2.584-.388a.417.417,0,0,0,.356-.413v-16.72a.417.417,0,0,0-.48-.413l-2.584.392a.417.417,0,0,0-.355.413v6.589l-3.6.541v-6.464a.418.418,0,0,0-.48-.413l-2.575.391a.418.418,0,0,0-.355.413v16.716a.418.418,0,0,0,.48.413l2.575-.389A.418.418,0,0,0,788.106,128.137Z"
        transform="translate(-743.055 -104.109)"
        fill="#ffcd00"
    ></path>
    <path
        id="Path_5001"
        data-name="Path 5001"
        d="M390.108,565.589l-2.73-25.234a.418.418,0,0,0-.478-.368l-11.154,1.686a.418.418,0,0,0-.352.365L372.4,568.132a.418.418,0,0,0,.477.46l6.4-.968a.418.418,0,0,0,.354-.386l.41-6.292,2.608-.393.365,6.046a.418.418,0,0,0,.479.388l6.254-.941A.418.418,0,0,0,390.108,565.589Zm-8.177-10.48-.978.147a.418.418,0,0,1-.479-.439l.517-8.09a.418.418,0,0,1,.834,0l.462,7.943A.418.418,0,0,1,381.931,555.109Z"
        transform="translate(-352.639 -511.328)"
        fill="#ffcd00"
    ></path>
    <path
        id="Path_5002"
        data-name="Path 5002"
        d="M735.989,492.545l3.078-12.571a.418.418,0,0,0-.468-.512l-6.564,1a.418.418,0,0,0-.343.314l-1.327,5.468-1.951-4.908a.418.418,0,0,0-.45-.259l-6.252.94a.418.418,0,0,0-.326.568l4.569,11.458-3.329,13.739a.417.417,0,0,0,.468.511l6.521-.986a.418.418,0,0,0,.343-.311l1.638-6.543,2.359,5.883a.417.417,0,0,0,.45.257l6.239-.945a.418.418,0,0,0,.326-.567Z"
        transform="translate(-683.076 -454.014)"
        fill="#ffcd00"
    ></path>
    <path
        id="Path_5003"
        data-name="Path 5003"
        d="M1106.628,436.366l3.078-12.571a.418.418,0,0,0-.468-.512l-6.564,1a.418.418,0,0,0-.343.314L1101,430.061l-1.951-4.908a.418.418,0,0,0-.45-.259l-6.252.94a.418.418,0,0,0-.326.568l4.569,11.458-3.33,13.739a.418.418,0,0,0,.468.511l6.521-.986a.418.418,0,0,0,.343-.311l1.638-6.543,2.359,5.883a.418.418,0,0,0,.45.257l6.239-.945a.418.418,0,0,0,.325-.567Z"
        transform="translate(-1034.046 -400.816)"
        fill="#ffcd00"
    ></path>
    <path
        id="Path_5004"
        data-name="Path 5004"
        d="M44.638,604.985v4.537a.418.418,0,0,0,.48.413l1.035-.157a.417.417,0,0,0,.355-.413V595.349l-8.209,1.24a.418.418,0,0,1-.48-.413v-4.67a.418.418,0,0,1,.355-.413l14.6-2.207a.418.418,0,0,1,.48.413V609.03c.017,4.9-2.754,7.092-8.259,7.443,0,0-7.4.575-7.181-7.554V605.9a.418.418,0,0,1,.354-.413l5.984-.919A.418.418,0,0,1,44.638,604.985Z"
        transform="translate(-35.807 -557.631)"
        fill="#ffcd00"
    ></path>
    </g>
</svg>